<svg width="126" height="32" viewBox="0 0 126 32" fill="none" xmlns="http://www.w3.org/2000/svg">
<path d="M16.6811 17.0239C14.6039 17.0239 12.9536 17.8424 11.787 19.451C11.1041 18.2092 9.73827 17.0239 7.66111 17.0239C5.52704 17.0239 4.27505 17.9552 3.39297 18.943V18.6608C3.39297 17.8424 2.71007 17.165 1.88489 17.165C1.05972 17.165 0.405273 17.8424 0.405273 18.6608V30.0341C0.405273 30.8526 1.05972 31.5017 1.88489 31.5017C2.71007 31.5017 3.39297 30.8526 3.39297 30.0341V22.1603C4.07587 21.0596 5.10022 19.8179 6.94975 19.8179C8.71391 19.8179 9.39682 20.6645 9.39682 22.8658V30.0341C9.39682 30.8526 10.0513 31.5017 10.8764 31.5017C11.7016 31.5017 12.3845 30.8526 12.3845 30.0341V22.1603C13.0674 21.0596 14.0918 19.8179 15.9413 19.8179C17.7055 19.8179 18.3884 20.6645 18.3884 22.8658V30.0341C18.3884 30.8526 19.0428 31.5017 19.868 31.5017C20.6932 31.5017 21.3761 30.8526 21.3761 30.0341V22.3861C21.433 19.7897 19.9533 17.0239 16.6811 17.0239ZM31.022 17.0239C29.3717 17.0239 27.8636 17.3344 26.2986 18.0117C25.758 18.2375 25.4166 18.689 25.4166 19.2817C25.4166 20.0154 25.9856 20.5799 26.697 20.5799C26.8108 20.5799 26.9531 20.5516 27.1238 20.5234C28.1766 20.1848 29.1725 19.9025 30.5952 19.9025C32.9 19.9025 33.8675 20.7492 33.8959 22.8376H30.9367C26.8962 22.8376 24.506 24.5591 24.506 27.4095C24.506 30.2035 26.8393 31.671 29.1441 31.671C30.9936 31.671 32.587 31.1066 33.8959 30.0341V30.0624C33.8959 30.8808 34.5504 31.5299 35.3755 31.5299C36.2007 31.5299 36.8836 30.8808 36.8836 30.0624V22.5554C36.8836 19.7897 35.0625 17.0239 31.022 17.0239ZM30.0546 28.9335C28.3758 28.9335 27.4937 28.3126 27.4937 27.0991C27.4937 26.6475 27.4937 25.2929 31.2497 25.2929H33.8675V27.1273C33.0992 27.974 31.648 28.9335 30.0546 28.9335ZM42.7452 11.7182C43.6557 11.7182 44.3955 12.452 44.3955 13.3551V13.468C44.3955 14.3711 43.6557 15.1049 42.7452 15.1049H42.5745C41.6639 15.1049 40.9241 14.3711 40.9241 13.468V13.3551C40.9241 12.452 41.6639 11.7182 42.5745 11.7182H42.7452ZM42.6598 17.1368C43.5135 17.1368 44.1679 17.8141 44.1679 18.6326V30.0059C44.1679 30.8243 43.5135 31.4734 42.6598 31.4734C41.8347 31.4734 41.1802 30.8243 41.1802 30.0059V18.6326C41.1802 17.7859 41.8347 17.1368 42.6598 17.1368ZM50.2571 11.2949C51.1107 11.2949 51.7652 11.9722 51.7652 12.7907V30.0059C51.7652 30.8243 51.1107 31.4734 50.2571 31.4734C49.4319 31.4734 48.7775 30.8243 48.7775 30.0059V12.7907C48.7775 11.944 49.4319 11.2949 50.2571 11.2949ZM62.1225 17.0239C59.9885 17.0239 58.2243 17.8141 57.0292 19.3099C56.0049 20.6081 55.4358 22.3861 55.4358 24.3334C55.4358 28.9053 58.1389 31.6428 62.6347 31.6428C65.1102 31.6428 66.3338 31.0783 67.4435 30.4292C67.9841 30.1188 68.2687 29.6673 68.2687 29.2157C68.2687 28.4819 67.6711 27.8893 66.9028 27.8893C66.6752 27.8893 66.476 27.9175 66.3053 28.0304C65.5086 28.4537 64.5127 28.8206 62.8339 28.8206C60.3299 28.8206 58.8503 27.6635 58.4804 25.4622H67.2158C68.0979 25.4622 68.7239 24.8413 68.7239 23.9947C68.7808 19.197 65.3379 17.0239 62.1225 17.0239ZM62.1225 19.6203C63.3745 19.6203 65.4801 20.3259 65.7647 22.9223H58.4804C58.7649 20.6363 60.4722 19.6203 62.1225 19.6203ZM79.1666 17.0239C79.9918 17.0239 80.6178 17.6448 80.6178 18.4632C80.6178 19.2817 79.9918 19.8743 79.1097 19.8743H78.9674C77.4309 19.8743 76.0651 20.6363 75.0977 22.0192V30.0059C75.0977 30.8243 74.4148 31.4734 73.5896 31.4734C72.7644 31.4734 72.11 30.8243 72.11 30.0059V18.6326C72.11 17.8141 72.7644 17.1368 73.5896 17.1368C74.4148 17.1368 75.0977 17.8141 75.0977 18.6326V18.9994C76.2927 17.7013 77.6016 17.0239 79.0244 17.0239H79.1666Z" fill="black"/>
<path d="M121.376 0.229492H90.6809C88.3152 0.229492 86.3535 2.17225 86.3535 4.515V18.8V21.5999V31.7422L92.3252 25.8854H121.405C123.771 25.8854 125.732 23.9426 125.732 21.5999V4.515C125.703 2.14368 123.771 0.229492 121.376 0.229492Z" fill="#09C269"/>
<path d="M115.722 10.1719C119.011 10.1719 120.511 12.7718 120.511 15.1717C120.511 15.8288 120.02 16.2859 119.357 16.2859H113.299C113.587 17.743 114.626 18.5144 116.27 18.5144C117.453 18.5144 118.116 18.2572 118.693 17.9715C118.838 17.8858 118.982 17.8573 119.155 17.8573C119.732 17.8573 120.193 18.3144 120.193 18.8858C120.193 19.2572 119.963 19.6 119.559 19.8286C118.751 20.2857 117.885 20.6857 116.097 20.6857C112.866 20.6857 110.904 18.7144 110.904 15.4288C110.904 11.5719 113.5 10.1719 115.722 10.1719ZM106.086 8.4863C106.461 8.4863 106.721 8.772 106.721 9.14341V10.3433H108.567C109.144 10.3433 109.606 10.8005 109.606 11.3719C109.606 11.9433 109.144 12.4004 108.567 12.4004H106.75V17.7716C106.75 18.5429 107.154 18.6001 107.702 18.6001C108.019 18.6001 108.192 18.5429 108.365 18.5144C108.51 18.4858 108.654 18.4287 108.827 18.4287C109.289 18.4287 109.808 18.8001 109.808 19.4C109.779 19.7715 109.577 20.1143 109.202 20.2857C108.654 20.5428 108.106 20.6571 107.5 20.6571C105.509 20.6571 104.442 19.7143 104.442 17.9144V12.4004H103.403C103.028 12.4004 102.769 12.1147 102.769 11.7718C102.769 11.5719 102.855 11.3719 103.028 11.229L105.567 8.74343C105.625 8.68629 105.827 8.4863 106.086 8.4863ZM94.4025 6.14355C95.0371 6.14355 95.5564 6.65782 95.5564 7.28636V19.4286C95.5564 20.0572 95.0371 20.5428 94.4025 20.5428C93.7678 20.5428 93.2773 20.0286 93.2773 19.4286V7.28636C93.2773 6.65782 93.7678 6.14355 94.4025 6.14355ZM99.7684 10.2576C100.403 10.2576 100.922 10.7719 100.922 11.4004V19.4286C100.922 20.0572 100.403 20.5428 99.7684 20.5428C99.1337 20.5428 98.6432 20.0286 98.6432 19.4286V11.4004C98.6432 10.7719 99.1337 10.2576 99.7684 10.2576ZM115.751 12.2004C114.654 12.2004 113.5 12.8575 113.299 14.3717H118.232C118.001 12.8575 116.847 12.2004 115.751 12.2004ZM99.8261 6.42926C100.518 6.42926 101.067 6.97209 101.067 7.65777V7.74348C101.067 8.42916 100.518 8.97199 99.8261 8.97199H99.7107C99.0183 8.97199 98.4702 8.42916 98.4702 7.74348V7.65777C98.4702 6.97209 99.0183 6.42926 99.7107 6.42926H99.8261Z" fill="white"/>
</svg>
