<svg width="42" height="43" viewBox="0 0 42 43" fill="none" xmlns="http://www.w3.org/2000/svg">
<g clip-path="url(#clip0_108_4322)">
<path d="M41.9999 21.5181C41.9999 21.8462 41.9999 22.1744 41.9999 22.5026C41.722 23.8404 40.8754 24.8085 39.9259 25.7143C39.3231 26.2896 38.7412 26.8858 38.1319 27.4535C37.2666 28.2586 36.8969 29.2475 36.9034 30.4191C36.91 31.6475 36.898 32.8782 36.8312 34.1044C36.7054 36.4092 35.2528 37.84 32.9468 37.9221C31.6101 37.9691 30.2712 37.933 28.9333 37.9308C27.974 37.9287 27.1426 38.2415 26.4535 38.9175C25.8201 39.5389 25.1769 40.1514 24.5512 40.7804C23.6291 41.7081 22.6544 42.5493 21.3297 42.8457C21.0015 42.8457 20.6734 42.8457 20.3452 42.8457C19.038 42.5733 18.0797 41.7606 17.1915 40.8297C16.5975 40.2072 15.9806 39.6067 15.3942 38.9777C14.588 38.1135 13.6013 37.7427 12.4287 37.7493C11.2002 37.7569 9.96962 37.7438 8.74446 37.676C6.43635 37.548 5.00882 36.0986 4.92459 33.7937C4.87974 32.5806 4.89396 31.3631 4.93006 30.1489C4.96725 28.915 4.58329 27.878 3.6863 27.0225C3.12295 26.4854 2.5946 25.9133 2.03999 25.3664C1.11675 24.4563 0.29414 23.4849 0.000976562 22.1744C0.000976562 21.8462 0.000976562 21.5181 0.000976562 21.1899C0.278825 19.8368 1.14191 18.8654 2.10234 17.9542C2.65695 17.428 3.18858 16.8756 3.75412 16.3615C4.70471 15.4962 5.12586 14.4373 5.10289 13.1531C5.08101 11.9662 5.10398 10.7761 5.16962 9.59028C5.2976 7.28107 6.74701 5.85245 9.05184 5.76931C10.3065 5.72446 11.5645 5.74962 12.8203 5.7715C13.9448 5.79119 14.9074 5.45099 15.7027 4.64042C16.2759 4.05518 16.8754 3.49511 17.4518 2.91316C18.3729 1.98445 19.3443 1.13887 20.6734 0.845703C21.0015 0.845703 21.3297 0.845703 21.6579 0.845703C22.9519 1.11152 23.9025 1.91444 24.7831 2.83112C25.3891 3.4612 26.0126 4.07378 26.6088 4.71371C27.415 5.57898 28.4017 5.94871 29.5744 5.94215C30.8028 5.93558 32.0334 5.94762 33.2586 6.01434C35.5645 6.14124 36.9964 7.59502 37.0774 9.89876C37.1233 11.2081 37.0894 12.5197 37.0828 13.8302C37.0774 14.8322 37.3847 15.704 38.1002 16.4227C38.716 17.0419 39.3166 17.6785 39.9357 18.2944C40.8633 19.2176 41.7045 20.1923 41.9999 21.5181ZM8.0389 21.8506C8.04109 28.9948 13.8726 34.8176 21.0146 34.8067C28.1457 34.7957 33.9499 28.9905 33.9598 21.8605C33.9696 14.7152 28.1523 8.88909 21.0037 8.88581C13.8584 8.88144 8.03671 14.7031 8.0389 21.8506Z" fill="#CDEDD9"/>
<path d="M8.03906 21.8506C8.03688 14.7031 13.8586 8.88137 21.0039 8.88574C28.1525 8.89012 33.9687 14.7151 33.9599 21.8604C33.9501 28.9904 28.1459 34.7957 21.0148 34.8066C13.8728 34.8176 8.04234 28.9948 8.03906 21.8506ZM14.9207 26.854C14.9065 28.9423 16.2028 29.8666 17.9082 29.2365C18.4168 29.0484 18.8905 28.7661 19.3794 28.5233C21.2248 27.6033 20.7829 27.6143 22.5977 28.5069C23.196 28.8011 23.7856 29.1392 24.4168 29.3339C25.8356 29.7725 27.0739 28.8515 27.0629 27.366C27.0575 26.6484 26.912 25.9308 26.8103 25.2165C26.5619 23.475 26.4493 23.8086 27.7072 22.5047C28.1897 22.0048 28.7235 21.5388 29.1282 20.9809C30.046 19.7153 29.5712 18.2582 28.0923 17.766C27.5289 17.5778 26.9207 17.5187 26.3311 17.4137C24.198 17.0352 24.5875 17.3743 23.6172 15.4929C23.4542 15.1778 23.3175 14.8486 23.1424 14.5401C22.9816 14.2557 22.811 13.9713 22.6021 13.7218C21.6887 12.6334 20.2896 12.6345 19.3904 13.7339C19.1257 14.0577 18.9233 14.4372 18.7176 14.8059C18.5317 15.1395 18.3446 15.4786 18.2221 15.8385C17.8732 16.8613 17.1523 17.2803 16.1011 17.3634C15.3189 17.4247 14.5204 17.5647 13.7831 17.8239C12.4267 18.3009 12.0066 19.6989 12.803 20.8956C13.0502 21.2675 13.3696 21.5946 13.6792 21.9195C14.0555 22.3155 14.4438 22.7027 14.8507 23.0659C15.308 23.475 15.4108 23.9563 15.2981 24.5426C15.133 25.398 15.0148 26.2633 14.9207 26.854Z" fill="#47805D"/>
<path d="M14.9211 26.8539C15.0151 26.2643 15.1333 25.398 15.2985 24.5414C15.4111 23.954 15.3083 23.4738 14.8511 23.0647C14.4441 22.7004 14.0569 22.3132 13.6795 21.9183C13.3699 21.5923 13.0505 21.2652 12.8033 20.8944C12.0058 19.6988 12.427 18.2997 13.7834 17.8228C14.5207 17.5635 15.3192 17.4235 16.1014 17.3622C17.1526 17.2791 17.8724 16.8601 18.2224 15.8373C18.345 15.4785 18.5331 15.1383 18.718 14.8047C18.9236 14.4361 19.126 14.0565 19.3907 13.7327C20.2899 12.6333 21.689 12.6322 22.6024 13.7207C22.8113 13.969 22.982 14.2545 23.1428 14.5389C23.3178 14.8474 23.4545 15.1755 23.6175 15.4917C24.5878 17.3732 24.1984 17.0341 26.3315 17.4125C26.9211 17.5176 27.5282 17.5777 28.0926 17.7648C29.5716 18.257 30.0474 19.7141 29.1285 20.9797C28.7238 21.5376 28.19 22.0036 27.7076 22.5035C26.4496 23.8074 26.5623 23.4749 26.8106 25.2153C26.9123 25.9296 27.0589 26.6472 27.0633 27.3648C27.0742 28.8503 25.8359 29.7713 24.4171 29.3327C23.786 29.138 23.1964 28.8 22.598 28.5057C20.7832 27.6131 21.2252 27.6032 19.3798 28.5221C18.8919 28.765 18.4182 29.0483 17.9085 29.2353C16.2031 29.8665 14.9068 28.9411 14.9211 26.8539Z" fill="white"/>
</g>
<defs>
<clipPath id="clip0_108_4322">
<rect width="42" height="42" fill="white" transform="translate(0 0.845703)"/>
</clipPath>
</defs>
</svg>
