<svg width="49" height="48" viewBox="0 0 49 48" fill="none" xmlns="http://www.w3.org/2000/svg">
<g clip-path="url(#clip0_108_4266)">
<path d="M24.9067 44.7173C24.6348 44.7173 24.3639 44.7173 24.0919 44.7173C22.994 44.5401 22.1588 43.926 21.4061 43.1488C20.792 42.5153 20.1371 41.9225 19.5076 41.3043C19.1613 40.9641 18.759 40.8327 18.2823 40.903C17.2486 41.0548 16.2138 41.1923 15.181 41.3522C12.9616 41.6974 11.2332 40.517 10.7892 38.3129C10.5824 37.2893 10.4021 36.2606 10.2473 35.2279C10.1546 34.6086 9.86333 34.19 9.3001 33.9099C8.37834 33.4506 7.47085 32.9586 6.56539 32.4677C4.63124 31.4186 3.98347 29.4295 4.92966 27.4424C5.38392 26.488 5.84632 25.5357 6.32502 24.5936C6.57965 24.0915 6.57761 23.6199 6.32299 23.1188C5.8504 22.1879 5.39512 21.2478 4.94392 20.3067C3.9743 18.2859 4.6292 16.2886 6.60715 15.2274C7.52687 14.7334 8.44556 14.2353 9.37648 13.7638C9.8837 13.5061 10.1465 13.1129 10.2351 12.5629C10.397 11.5587 10.5702 10.5565 10.7505 9.55527C11.1558 7.31047 12.7712 6.09233 15.0292 6.35001C16.0661 6.46816 17.0999 6.62501 18.1306 6.79408C18.6999 6.88677 19.1623 6.76353 19.5748 6.35001C20.3224 5.60039 21.0904 4.87011 21.8563 4.13882C23.4462 2.62124 25.5504 2.62022 27.1403 4.13679C27.9266 4.88641 28.7068 5.64215 29.4819 6.40297C29.8394 6.75436 30.2539 6.88473 30.7448 6.8114C31.7776 6.6576 32.8124 6.51501 33.8452 6.3602C36.0503 6.02918 37.7624 7.2076 38.2075 9.39434C38.4183 10.4302 38.5925 11.4741 38.7575 12.5191C38.8491 13.1017 39.119 13.5112 39.6568 13.7801C40.5653 14.2353 41.4565 14.7283 42.3538 15.207C44.397 16.2968 45.0407 18.289 44.0252 20.3759C43.5862 21.2783 43.1564 22.1848 42.6971 23.077C42.4251 23.6046 42.419 24.0966 42.691 24.6262C43.1666 25.5551 43.6209 26.4962 44.07 27.4383C45.0183 29.4285 44.3735 31.4146 42.4394 32.4646C41.5095 32.9688 40.5776 33.4689 39.6344 33.9476C39.1282 34.2043 38.8573 34.5913 38.7687 35.1423C38.6067 36.1466 38.4326 37.1488 38.2533 38.15C37.85 40.4101 36.2071 41.6404 33.942 41.3644C32.9051 41.2381 31.8713 41.0853 30.8406 40.9193C30.2855 40.8297 29.8333 40.956 29.433 41.3583C28.83 41.9653 28.1894 42.5336 27.5946 43.1478C26.8409 43.926 26.0047 44.5401 24.9067 44.7173ZM33.727 15.9851C33.6364 15.2487 33.0986 14.7201 32.4172 14.7242C32.0017 14.7273 31.7084 14.9483 31.4323 15.2243C26.242 20.4177 21.0496 25.609 15.8583 30.8024C15.7625 30.8982 15.6627 30.9939 15.5863 31.1049C15.3185 31.495 15.2798 31.9157 15.4947 32.3363C15.7086 32.7559 16.064 32.9759 16.5417 32.9922C17.0092 33.0085 17.3199 32.7396 17.6244 32.4351C22.2006 27.8549 26.7788 23.2777 31.357 18.6995C31.9711 18.0853 32.6016 17.4864 33.1913 16.8488C33.4174 16.6054 33.5508 16.2754 33.727 15.9851ZM29.2986 25.8739C26.8501 25.882 24.8935 27.862 24.9057 30.3186C24.9179 32.705 26.9081 34.6819 29.3047 34.687C31.7338 34.6921 33.726 32.6877 33.7138 30.2514C33.7026 27.8192 31.7328 25.8667 29.2986 25.8739ZM19.7021 21.8446C22.1313 21.8344 24.097 19.8626 24.095 17.4375C24.093 15.0084 22.0783 13.008 19.6543 13.0294C17.2374 13.0498 15.2737 15.045 15.2859 17.466C15.2971 19.8962 17.273 21.8548 19.7021 21.8446Z" fill="#CDEDD9"/>
<path d="M33.7273 15.9856C33.5511 16.2769 33.4177 16.6069 33.1916 16.8503C32.6019 17.4868 31.9714 18.0868 31.3572 18.7009C26.779 23.2791 22.2008 27.8563 17.6247 32.4366C17.3201 32.7411 17.0085 33.01 16.542 32.9937C16.0643 32.9764 15.7088 32.7574 15.4949 32.3378C15.28 31.9171 15.3187 31.4965 15.5866 31.1064C15.663 30.9954 15.7628 30.8996 15.8586 30.8039C21.0499 25.6095 26.2423 20.4181 31.4326 15.2247C31.7086 14.9477 32.002 14.7267 32.4175 14.7246C33.0989 14.7196 33.6367 15.2492 33.7273 15.9856Z" fill="#09C269"/>
<path d="M29.2981 25.875C31.7324 25.8669 33.7022 27.8194 33.7144 30.2526C33.7266 32.6889 31.7344 34.6923 29.3053 34.6882C26.9097 34.6831 24.9196 32.7072 24.9063 30.3198C24.8931 27.8632 26.8486 25.8832 29.2981 25.875ZM29.3246 32.2672C30.4277 32.2611 31.3168 31.3699 31.3148 30.273C31.3128 29.1862 30.4073 28.2787 29.3185 28.2716C28.2175 28.2645 27.2927 29.1994 27.3131 30.2984C27.3324 31.4076 28.2175 32.2733 29.3246 32.2672Z" fill="#09C269"/>
<path d="M19.7015 21.8437C17.2733 21.8539 15.2974 19.8953 15.2852 17.4641C15.273 15.0431 17.2367 13.0489 19.6536 13.0275C22.0777 13.0071 24.0923 15.0075 24.0943 17.4356C24.0964 19.8617 22.1306 21.8335 19.7015 21.8437ZM21.6855 17.4264C21.6723 16.3214 20.7862 15.4465 19.6811 15.4495C18.5781 15.4526 17.6879 16.3387 17.6828 17.4366C17.6787 18.5326 18.6198 19.4655 19.7117 19.4472C20.8035 19.4278 21.6988 18.5112 21.6855 17.4264Z" fill="#09C269"/>
<path d="M29.3253 32.2671C28.2182 32.2733 27.3331 31.4075 27.3138 30.2984C27.2944 29.1984 28.2182 28.2644 29.3192 28.2715C30.408 28.2787 31.3135 29.1861 31.3155 30.2729C31.3175 31.3688 30.4284 32.26 29.3253 32.2671Z" fill="#CDEDD9"/>
<path d="M21.6863 17.4262C21.6985 18.5109 20.8033 19.4286 19.7135 19.4469C18.6216 19.4662 17.6795 18.5333 17.6846 17.4363C17.6887 16.3384 18.5799 15.4523 19.6829 15.4492C20.787 15.4462 21.6741 16.3201 21.6863 17.4262Z" fill="#CDEDD9"/>
</g>
<defs>
<clipPath id="clip0_108_4266">
<rect width="40" height="41.7162" fill="white" transform="translate(4.5 3)"/>
</clipPath>
</defs>
</svg>
