<svg width="19" height="18" viewBox="0 0 19 18" fill="none" xmlns="http://www.w3.org/2000/svg">
<path d="M15.6099 3.90147C15.5036 3.77659 15.3967 3.65509 15.2868 3.54203C14.5492 2.77462 13.6636 2.16476 12.6837 1.74933C11.7037 1.3339 10.6496 1.12152 9.58523 1.12504C8.52084 1.12857 7.46821 1.34791 6.491 1.76982C5.51379 2.19173 4.6323 2.80744 3.89981 3.57972C3.7994 3.68631 3.70294 3.79262 3.61069 3.90175C2.40011 5.32466 1.73535 7.13191 1.73535 9.00011C1.73535 10.8683 2.40011 12.6756 3.61069 14.0985C3.717 14.2233 3.82387 14.3448 3.93384 14.4579C4.67142 15.2253 5.55698 15.8352 6.53696 16.2506C7.51694 16.666 8.57099 16.8784 9.63539 16.8749C10.6998 16.8714 11.7524 16.652 12.7296 16.2301C13.7068 15.8082 14.5883 15.1925 15.3208 14.4202C15.4212 14.3136 15.5177 14.2073 15.6099 14.0982C16.8205 12.6753 17.4853 10.868 17.4853 8.99983C17.4853 7.13162 16.8205 5.32438 15.6099 3.90147ZM6.89119 10.8647C6.82075 10.2352 6.78563 9.60237 6.786 8.96903C6.786 8.4594 6.81412 7.9509 6.85772 7.44747H12.3623C12.4057 7.95175 12.4343 8.45997 12.4343 8.96903C12.4347 9.60237 12.3996 10.2352 12.3292 10.8647H6.89119ZM2.86059 8.99997C2.86249 8.47693 2.92545 7.9559 3.04819 7.44747H5.72934C5.68884 7.95231 5.661 8.45997 5.661 8.96903C5.66053 9.60217 5.69311 10.2349 5.75859 10.8647H3.1275C2.95173 10.2586 2.86189 9.63095 2.86059 8.99997ZM13.4918 7.44747H16.1741C16.4485 8.57372 16.421 9.7524 16.0945 10.8647H13.4617C13.5272 10.2349 13.5598 9.60217 13.5593 8.96903C13.5593 8.46109 13.5315 7.95315 13.4918 7.44747ZM14.7549 4.63131C15.1856 5.13994 15.538 5.70992 15.8006 6.32247H13.3689C13.239 5.42901 13.021 4.55061 12.7181 3.70009C12.6703 3.56847 12.6222 3.43993 12.5707 3.31506C12.499 3.14434 12.4245 2.98234 12.348 2.82681C13.1485 3.18305 13.872 3.69163 14.4782 4.32418C14.5735 4.42234 14.6638 4.52584 14.7541 4.63131H14.7549ZM10.71 2.3394C11.0548 2.76393 11.3321 3.23899 11.5324 3.7479C11.5771 3.85562 11.619 3.96897 11.6615 4.0854C11.9194 4.81156 12.1091 5.56022 12.2279 6.32162H6.99328C7.11281 5.5577 7.30339 4.80659 7.56253 4.07809C7.59881 3.97431 7.63762 3.87587 7.67503 3.78193C7.8762 3.26125 8.15674 2.77484 8.50669 2.33997C9.23625 2.22034 9.98043 2.22034 10.71 2.33997V2.3394ZM4.47019 4.62765C4.55034 4.53203 4.63303 4.44175 4.7174 4.35259C5.32786 3.70596 6.06062 3.18696 6.87319 2.82568C6.7905 2.99443 6.71034 3.17134 6.63412 3.35781C6.58856 3.47031 6.54328 3.58534 6.50362 3.6984C6.20206 4.54964 5.98538 5.4286 5.85675 6.32247H3.42169C3.68512 5.70862 4.0385 5.13741 4.47019 4.62765ZM4.46709 13.3686C4.11065 12.9481 3.80743 12.4852 3.56428 11.9905H5.91891C6.04505 12.7561 6.24057 13.5086 6.50306 14.2388C6.55087 14.3704 6.59897 14.499 6.65016 14.6227C6.73341 14.8228 6.8205 15.0123 6.91144 15.1914C6.09579 14.8344 5.35883 14.3196 4.743 13.6766C4.64765 13.5776 4.55737 13.4741 4.46709 13.3686ZM8.56997 15.6707C8.19662 15.2293 7.89897 14.7291 7.68909 14.1904C7.64437 14.0824 7.60247 13.9688 7.55944 13.8501C7.34039 13.2452 7.17301 12.6228 7.05909 11.9897H12.1624C12.0476 12.626 11.8791 13.2515 11.6587 13.8594C11.628 13.9477 11.5951 14.0301 11.5622 14.1125L11.5453 14.155C11.3348 14.7077 11.0315 15.2203 10.6484 15.6709C9.95948 15.7759 9.25861 15.7759 8.56969 15.6709L8.56997 15.6707ZM14.7513 13.3723C14.6711 13.4679 14.5884 13.5582 14.5041 13.6473C13.884 14.3045 13.1379 14.83 12.3103 15.1925C12.4082 14.9987 12.5019 14.793 12.5916 14.5755L12.6107 14.5277C12.6489 14.4306 12.6872 14.3342 12.7195 14.2411C12.9824 13.5104 13.1783 12.7573 13.3048 11.9911H15.6575C15.4131 12.4869 15.1089 12.9508 14.7513 13.3723Z" fill="black"/>
</svg>
