<svg width="25" height="24" viewBox="0 0 25 24" fill="none" xmlns="http://www.w3.org/2000/svg">
<path fill-rule="evenodd" clip-rule="evenodd" d="M8.90623 17.9327C8.65677 17.6831 8.51664 17.3447 8.51664 16.9919C8.51664 16.6391 8.65677 16.3007 8.90623 16.0511L13.2881 11.6693L8.90623 7.28742C8.77914 7.16467 8.67777 7.01784 8.60803 6.8555C8.53829 6.69315 8.50159 6.51854 8.50005 6.34186C8.49851 6.16518 8.53218 5.98996 8.59909 5.82642C8.66599 5.66289 8.7648 5.51432 8.88974 5.38938C9.01468 5.26444 9.16325 5.16564 9.32678 5.09873C9.49031 5.03182 9.66553 4.99816 9.84222 4.99969C10.0189 5.00123 10.1935 5.03793 10.3559 5.10767C10.5182 5.17741 10.665 5.27878 10.7878 5.40588L16.1104 10.7285C16.3599 10.978 16.5 11.3164 16.5 11.6693C16.5 12.0221 16.3599 12.3605 16.1104 12.61L10.7878 17.9327C10.5382 18.1821 10.1998 18.3223 9.84701 18.3223C9.49416 18.3223 9.15577 18.1821 8.90623 17.9327Z" fill="white"/>
</svg>
