<svg width="66" height="12" viewBox="0 0 66 12" fill="none" xmlns="http://www.w3.org/2000/svg">
<path d="M12.2587 6.3122C12.2644 6.20435 12.2757 6.10218 12.2757 5.99432C12.2757 5.88647 12.2644 5.7843 12.2587 5.67644C11.0452 5.13718 9.8993 4.38221 8.90585 3.38316C7.9124 2.38411 7.16167 1.23179 6.62543 0.0113529C6.52383 0.0113529 6.41658 0 6.31498 0C6.21338 0 6.10613 0.0113529 5.99888 0.0170293C5.46265 1.23746 4.71191 2.38978 3.71846 3.38884C2.72501 4.38789 1.57916 5.14286 0.365567 5.68212C0.359922 5.7843 0.348633 5.89215 0.348633 6C0.348633 6.10785 0.359922 6.21003 0.365567 6.31788C1.57916 6.85714 2.72501 7.61211 3.71846 8.61116C4.71191 9.61022 5.46265 10.7625 5.99888 11.983C6.10613 11.9886 6.20773 12 6.31498 12C6.42223 12 6.52383 11.9886 6.63108 11.983C7.16732 10.7625 7.91805 9.61022 8.9115 8.61116C9.90495 7.61211 11.0452 6.85147 12.2587 6.3122Z" fill="#EECC54"/>
<path d="M25.6025 6.3122C25.6081 6.20435 25.6194 6.10218 25.6194 5.99432C25.6194 5.88647 25.6081 5.7843 25.6025 5.67644C24.3889 5.13718 23.2431 4.38221 22.2496 3.38316C21.2562 2.38411 20.5054 1.23179 19.9692 0.0113529C19.8676 0.0113529 19.7603 0 19.6587 0C19.5571 0 19.4499 0.0113529 19.3426 0.0170293C18.8064 1.23746 18.0557 2.38978 17.0622 3.38884C16.0688 4.38789 14.9229 5.14286 13.7093 5.68212C13.7037 5.78997 13.6924 5.89215 13.6924 6C13.6924 6.10785 13.7037 6.21003 13.7093 6.31788C14.9229 6.85714 16.0688 7.61211 17.0622 8.61116C18.0557 9.61022 18.8064 10.7625 19.3426 11.983C19.4499 11.9886 19.5515 12 19.6587 12C19.766 12 19.8676 11.9886 19.9748 11.983C20.5111 10.7625 21.2618 9.61022 22.2552 8.61116C23.2487 7.61211 24.3889 6.85147 25.6025 6.3122Z" fill="#EECC54"/>
<path d="M38.9462 6.3122C38.9519 6.20435 38.9632 6.10218 38.9632 5.99432C38.9632 5.88647 38.9519 5.7843 38.9462 5.67644C37.7327 5.13718 36.5868 4.38221 35.5934 3.38316C34.5999 2.38411 33.8492 1.23179 33.3129 0.0113529C33.2113 0.0113529 33.1041 0 33.0025 0C32.9009 0 32.7936 0.0113529 32.6864 0.0170293C32.1501 1.23746 31.3994 2.38978 30.406 3.38884C29.4125 4.38789 28.2667 5.14286 27.0531 5.68212C27.0474 5.78997 27.0361 5.89215 27.0361 6C27.0361 6.10785 27.0474 6.21003 27.0531 6.31788C28.2667 6.85714 29.4125 7.61211 30.406 8.61116C31.3994 9.61022 32.1501 10.7625 32.6864 11.983C32.7936 11.9886 32.8952 12 33.0025 12C33.1097 12 33.2113 11.9886 33.3186 11.983C33.8548 10.7625 34.6055 9.61022 35.599 8.61116C36.5924 7.61211 37.7327 6.85147 38.9462 6.3122Z" fill="#EECC54"/>
<path d="M52.29 6.3122C52.2956 6.20435 52.3069 6.10218 52.3069 5.99432C52.3069 5.88647 52.2956 5.7843 52.29 5.67644C51.0764 5.13718 49.9306 4.38221 48.9371 3.38316C47.9437 2.38411 47.1929 1.23179 46.6567 0.0113529C46.5551 0.0113529 46.4478 0 46.3462 0C46.2446 0 46.1374 0.0113529 46.0301 0.0170293C45.4939 1.23746 44.7432 2.38978 43.7497 3.38884C42.7563 4.38789 41.6104 5.14286 40.3968 5.68212C40.3912 5.78997 40.3799 5.89215 40.3799 6C40.3799 6.10785 40.3912 6.21003 40.3968 6.31788C41.6104 6.85714 42.7563 7.61211 43.7497 8.61116C44.7432 9.61022 45.4939 10.7625 46.0301 11.983C46.1374 11.9886 46.239 12 46.3462 12C46.4535 12 46.5551 11.9886 46.6623 11.983C47.1986 10.7625 47.9493 9.61022 48.9427 8.61116C49.9362 7.61211 51.0764 6.85147 52.29 6.3122Z" fill="#EECC54"/>
<path d="M65.6338 6.3122C65.6394 6.20435 65.6507 6.10218 65.6507 5.99432C65.6507 5.88647 65.6394 5.7843 65.6338 5.67644C64.4202 5.13718 63.2743 4.38221 62.2809 3.38316C61.2874 2.38411 60.5367 1.23179 60.0004 0.0113529C59.8988 0.0113529 59.7916 0 59.69 0C59.5884 0 59.4811 0.0113529 59.3739 0.0170293C58.8376 1.23746 58.0869 2.38978 57.0935 3.38884C56.1 4.38789 54.9542 5.14286 53.7406 5.68212C53.7349 5.78997 53.7236 5.89215 53.7236 6C53.7236 6.10785 53.7349 6.21003 53.7406 6.31788C54.9542 6.85714 56.1 7.61211 57.0935 8.61116C58.0869 9.61022 58.8376 10.7625 59.3739 11.983C59.4811 11.9886 59.5827 12 59.69 12C59.7972 12 59.8988 11.9886 60.0061 11.983C60.5423 10.7625 61.2931 9.61022 62.2865 8.61116C63.28 7.61211 64.4202 6.85147 65.6338 6.3122Z" fill="#EECC54"/>
</svg>
