<svg width="9" height="6" viewBox="0 0 9 6" fill="none" xmlns="http://www.w3.org/2000/svg">
<path fill-rule="evenodd" clip-rule="evenodd" d="M0.844581 0.834074C0.994603 0.684098 1.19805 0.599845 1.41018 0.599845C1.62231 0.599845 1.82576 0.684098 1.97578 0.834074L4.61018 3.46847L7.24458 0.834074C7.31838 0.757666 7.40665 0.69672 7.50426 0.654793C7.60186 0.612866 7.70684 0.590797 7.81306 0.589874C7.91928 0.588951 8.02463 0.609192 8.12294 0.649417C8.22126 0.689642 8.31058 0.749044 8.3857 0.824158C8.46081 0.899272 8.52021 0.988594 8.56044 1.08691C8.60066 1.18523 8.6209 1.29057 8.61998 1.3968C8.61906 1.50302 8.59699 1.60799 8.55506 1.7056C8.51314 1.8032 8.45219 1.89148 8.37578 1.96527L5.17578 5.16527C5.02576 5.31525 4.82231 5.3995 4.61018 5.3995C4.39805 5.3995 4.1946 5.31525 4.04458 5.16527L0.844581 1.96527C0.694604 1.81525 0.610352 1.61181 0.610352 1.39967C0.610352 1.18754 0.694604 0.984097 0.844581 0.834074Z" fill="black"/>
</svg>
