<svg width="9" height="6" viewBox="0 0 9 6" fill="none" xmlns="http://www.w3.org/2000/svg">
<path fill-rule="evenodd" clip-rule="evenodd" d="M0.734229 0.834074C0.884251 0.684098 1.0877 0.599845 1.29983 0.599845C1.51196 0.599845 1.71541 0.684098 1.86543 0.834074L4.49983 3.46847L7.13423 0.834074C7.20803 0.757666 7.2963 0.69672 7.39391 0.654793C7.49151 0.612866 7.59649 0.590797 7.70271 0.589874C7.80893 0.588951 7.91428 0.609192 8.01259 0.649417C8.11091 0.689642 8.20023 0.749044 8.27534 0.824158C8.35046 0.899272 8.40986 0.988594 8.45009 1.08691C8.49031 1.18523 8.51055 1.29057 8.50963 1.3968C8.50871 1.50302 8.48664 1.60799 8.44471 1.7056C8.40278 1.8032 8.34184 1.89148 8.26543 1.96527L5.06543 5.16527C4.91541 5.31525 4.71196 5.3995 4.49983 5.3995C4.2877 5.3995 4.08425 5.31525 3.93423 5.16527L0.734229 1.96527C0.584252 1.81525 0.5 1.61181 0.5 1.39967C0.5 1.18754 0.584252 0.984097 0.734229 0.834074Z" fill="black"/>
</svg>
